<?xml version="1.0" encoding="UTF-8"?>
<svg id="Layer_1" data-name="Layer 1" xmlns="http://www.w3.org/2000/svg" viewBox="0 0 512 512">
  <defs>
    <style>
      .cls-1 {
        fill: #f9ff00;
      }
    </style>
  </defs>
  <path class="cls-1" d="m256,512c-34.37,0-66.79-14.23-89.96-38.83-33.66.96-66.75-11.84-91.07-36.14-24.3-24.32-37.14-57.3-36.16-91.07-51.22-45.85-51.22-134.08,0-179.93-.98-33.77,11.86-66.75,36.16-91.07,24.34-24.32,57.3-37.48,91.07-36.16,45.82-51.24,134.1-51.24,179.93,0,33.51-1.19,66.73,11.84,91.07,36.14,24.3,24.32,37.14,57.3,36.16,91.07,51.22,45.85,51.22,134.08,0,179.93.98,33.77-11.86,66.75-36.16,91.07-24.34,24.32-57.51,37.29-91.07,36.16-23.17,24.6-55.57,38.83-89.96,38.83h0Zm-76.01-104.47c10.52,0,20.52,5.18,26.54,14.12,21.99,34.73,76.97,34.73,98.97,0,7.19-10.65,19.99-16,32.64-13.53,19.63,3.8,39.62-2.3,53.65-16.36,14.02-14.04,20.14-34.09,16.36-53.65-2.43-12.61,2.88-25.45,13.53-32.62,34.73-21.99,34.73-76.99,0-98.99-10.65-7.17-15.96-20.01-13.53-32.62,3.8-19.56-2.33-39.62-16.36-53.65-14.04-14.04-34.03-20.14-53.65-16.36-12.52,2.54-25.45-2.88-32.64-13.53-21.99-34.73-76.97-34.73-98.97,0-7.17,10.65-19.99,16.04-32.64,13.53-19.61-3.8-39.59,2.33-53.65,16.36-14.02,14.04-20.14,34.09-16.36,53.65,2.43,12.61-2.88,25.45-13.53,32.62-34.73,21.99-34.73,76.99,0,98.99,10.65,7.17,15.96,20.01,13.53,32.62-3.8,19.56,2.33,39.62,16.36,53.65,14.06,14.04,34.05,20.16,53.65,16.36,2.03-.41,4.07-.6,6.1-.6Zm1.34-236.86c-42.07.73-42.05,63.3,0,64,42.07-.73,42.05-63.3,0-64Zm149.33,106.67c-42.07.73-42.05,63.3,0,64,42.07-.73,42.05-63.3,0-64h0Zm-90.71,60.42l85.33-128c9.81-14.7,5.82-34.58-8.87-44.37-14.68-9.79-34.56-5.82-44.37,8.87l-85.33,128c-9.81,14.7-5.82,34.58,8.87,44.37,5.46,3.63,11.63,5.38,17.73,5.38,10.33,0,20.48-4.99,26.65-14.25h0Z"/>
</svg>