<?xml version="1.0" encoding="UTF-8"?>
<svg id="Layer_1" data-name="Layer 1" xmlns="http://www.w3.org/2000/svg" viewBox="0 0 24 24">
  <defs>
    <style>
      .cls-1 {
        fill: #f9ff00;
      }
    </style>
  </defs>
  <path class="cls-1" d="m23.71,22.29l-3.96-3.96,1.59-1.59.21.21c.19.19.45.29.71.29s.51-.1.71-.29c.39-.39.39-1.02,0-1.41l-4.5-4.5c-.39-.39-1.02-.39-1.41,0s-.39,1.02,0,1.41l.06.06-4.59,4.59-.06-.06c-.39-.39-1.02-.39-1.41,0s-.39,1.02,0,1.41l4.5,4.5c.19.19.45.29.71.29s.51-.1.71-.29c.39-.39.39-1.02,0-1.41l-.21-.21,1.59-1.59,3.96,3.96c.19.19.45.29.71.29s.51-.1.71-.29c.39-.39.39-1.02,0-1.41Zm-8.37-2.37l-1.41-1.41,4.59-4.59,1.41,1.41-4.59,4.59Zm-3.34,2.08h-7c-1.65,0-3-1.35-3-3V5c0-1.65,1.35-3,3-3h4.51c.16,0,.32,0,.48.02v4.98c0,1.65,1.35,3,3,3h5.81c.31,0,.6-.14.79-.39s.25-.56.18-.86c-.31-1.22-.94-2.33-1.83-3.22l-3.48-3.48C13.14.73,11.38,0,9.52,0h-4.52C2.24,0,0,2.24,0,5v14c0,2.76,2.24,5,5,5h7c.55,0,1-.45,1-1s-.45-1-1-1Zm0-19.34c.38.22.73.49,1.05.81l3.48,3.49c.31.31.58.67.8,1.05h-4.34c-.55,0-1-.45-1-1,0,0,0-4.34,0-4.34Z"/>
</svg>