<?xml version="1.0" encoding="UTF-8"?>
<svg id="Layer_1" data-name="Layer 1" xmlns="http://www.w3.org/2000/svg" viewBox="0 0 24 24">
  <defs>
    <style>
      .cls-1 {
        fill: #f9ff00;
      }
    </style>
  </defs>
  <path class="cls-1" d="m1,13c-.55,0-1-.45-1-1C0,5.38,5.38,0,12,0,15.45,0,18.73,1.52,21,4.09V1C21,.45,21.45,0,22,0s1,.45,1,1v4c0,1.1-.9,2-2,2h-4c-.55,0-1-.45-1-1s.45-1,1-1h2.12c-1.87-1.89-4.43-3-7.12-3C6.49,2,2,6.49,2,12c0,.55-.45,1-1,1Zm22-2c-.55,0-1,.45-1,1,0,5.51-4.49,10-10,10-2.69,0-5.26-1.11-7.12-3h2.12c.55,0,1-.45,1-1s-.45-1-1-1H3c-1.1,0-2,.9-2,2v4c0,.55.45,1,1,1s1-.45,1-1v-3.09c2.27,2.57,5.55,4.09,9,4.09,6.62,0,12-5.38,12-12,0-.55-.45-1-1-1Zm-12.14,8.92c.37.05.76.08,1.14.08,4.41,0,8-3.59,8-8,0-.78-.11-1.55-.33-2.29-.16-.53-.72-.83-1.24-.67-.53.16-.83.72-.67,1.24.17.55.25,1.13.25,1.71,0,3.31-2.69,6-6,6-.29,0-.58-.02-.86-.06-.54-.08-1.05.3-1.13.85-.08.55.3,1.05.85,1.13h0Zm1.14-13.92c.29,0,.57.02.86.06.55.08,1.05-.3,1.13-.85.08-.55-.3-1.05-.85-1.13-.38-.05-.76-.08-1.14-.08-4.41,0-8,3.59-8,8,0,.78.11,1.55.33,2.29.13.43.53.72.96.72.09,0,.19-.01.28-.04.53-.16.83-.71.67-1.24-.16-.56-.25-1.13-.25-1.72,0-3.31,2.69-6,6-6h0Zm1.13,8.2h-2.2c-.22,0-.43-.11-.56-.29-.14-.19-.43-.21-.55-.21-.38,0-.63.25-.73.48-.13.29-.09.6.12.84.44.5,1.07.78,1.73.78h.28v.7c0,.44.36.8.8.8s.8-.36.8-.8v-.7h.33c.65,0,1.26-.29,1.67-.79.41-.5.58-1.16.46-1.8-.16-.85-.89-1.55-1.81-1.73l-2.69-.54c-.27-.05-.46-.29-.46-.56,0-.32.26-.57.57-.57h2.2c.22,0,.43.11.56.29.14.19.43.21.55.21.38,0,.63-.25.73-.48.13-.29.09-.6-.12-.84-.44-.5-1.07-.78-1.73-.78h-.28v-.7c0-.44-.36-.8-.8-.8s-.8.36-.8.8v.7h-.33c-.65,0-1.26.29-1.67.79-.41.5-.58,1.16-.46,1.8.16.85.89,1.55,1.81,1.73l2.69.54c.27.05.46.29.46.56,0,.32-.26.57-.57.57h0Z"/>
</svg>