<?xml version="1.0" encoding="UTF-8"?>
<svg id="Layer_1" data-name="Layer 1" xmlns="http://www.w3.org/2000/svg" viewBox="0 0 512 512">
  <defs>
    <style>
      .cls-1 {
        fill: #f9ff00;
      }
    </style>
  </defs>
  <path class="cls-1" d="m330.67,149.33h-149.33c-17.71,0-32,14.29-32,32v149.33c0,17.71,14.29,32,32,32h149.33c17.71,0,32-14.29,32-32v-149.33c0-17.71-14.29-32-32-32Zm-32,149.33h-85.33v-85.33h85.33v85.33Zm181.33-10.67c17.71,0,32-14.29,32-32s-14.29-32-32-32h-10.67v-53.33h10.67c17.71,0,32-14.29,32-32s-14.29-32-32-32h-23.68c-11.31-21.97-29.23-39.89-50.99-50.99v-23.68C405.33,14.29,391.04,0,373.33,0s-32,14.29-32,32v10.67h-53.33v-10.67C288,14.29,273.71,0,256,0s-32,14.29-32,32v10.67h-53.33v-10.67C170.67,14.29,156.37,0,138.67,0s-32,14.29-32,32v23.68c-21.97,11.31-39.89,29.23-50.99,50.99h-23.68C14.29,106.67,0,120.96,0,138.67s14.29,32,32,32h10.67v53.33h-10.67c-17.71,0-32,14.29-32,32s14.29,32,32,32h10.67v53.33h-10.67c-17.71,0-32,14.29-32,32s14.29,32,32,32h23.68c11.31,21.97,29.23,39.89,50.99,50.99v23.68c0,17.71,14.29,32,32,32s32-14.29,32-32v-10.67h53.33v10.67c0,17.71,14.29,32,32,32s32-14.29,32-32v-10.67h53.33v10.67c0,17.71,14.29,32,32,32s32-14.29,32-32v-23.68c21.97-11.31,39.89-29.23,50.99-50.99h23.68c17.71,0,32-14.29,32-32s-14.29-32-32-32h-10.67v-53.33h10.67Zm-128,117.33h-192c-29.44,0-53.33-23.89-53.33-53.33v-192c0-29.44,23.89-53.33,53.33-53.33h192c29.44,0,53.33,23.89,53.33,53.33v192c0,29.44-23.89,53.33-53.33,53.33Z"/>
</svg>